<?xml version="1.0" encoding="UTF-8" standalone="no"?> <!-- Created with Inkscape (http://www.inkscape.org/) --> <svg xmlns:dc="http://purl.org/dc/elements/1.1/" xmlns:cc="http://creativecommons.org/ns#" xmlns:rdf="http://www.w3.org/1999/02/22-rdf-syntax-ns#" xmlns:svg="http://www.w3.org/2000/svg" xmlns="http://www.w3.org/2000/svg" xmlns:xlink="http://www.w3.org/1999/xlink" xmlns:sodipodi="http://sodipodi.sourceforge.net/DTD/sodipodi-0.dtd" xmlns:inkscape="http://www.inkscape.org/namespaces/inkscape" width="390" height="88" viewBox="0 0 103.1875 23.283334" version="1.1" id="svg7308" inkscape:version="0.92.4 (5da689c313, 2019-01-14)" sodipodi:docname="logoaiph88h.svg"><defs id="defs7302"><linearGradient inkscape:collect="always" xlink:href="#linearGradient1123" id="linearGradient7290" gradientUnits="userSpaceOnUse" x1="-1862.4366" y1="2605.312" x2="-1315.6808" y2="2622.1118"></linearGradient><linearGradient inkscape:collect="always" id="linearGradient1123"><stop style="stop-color:#f2672b;stop-opacity:1;" offset="0" id="stop1119"></stop><stop style="stop-color:#c01616;stop-opacity:1" offset="1" id="stop1121"></stop></linearGradient><linearGradient inkscape:collect="always" xlink:href="#linearGradient1228" id="linearGradient7292" gradientUnits="userSpaceOnUse" gradientTransform="translate(-368.95978,78.76239)" x1="-319.88626" y1="-272.89206" x2="-321.73663" y2="-301.52258"></linearGradient><linearGradient inkscape:collect="always" id="linearGradient1228"><stop style="stop-color:#000000;stop-opacity:1;" offset="0" id="stop1224"></stop><stop style="stop-color:#000000;stop-opacity:0;" offset="1" id="stop1226"></stop></linearGradient><radialGradient inkscape:collect="always" xlink:href="#linearGradient928" id="radialGradient7294" gradientUnits="userSpaceOnUse" gradientTransform="matrix(1.0478829,-1.3832932e-8,-1.8608684e-8,0.66552294,-549.75305,-144.21861)" cx="-117.73365" cy="-29.405781" fx="-117.73365" fy="-29.405781" r="28.324982"></radialGradient><linearGradient inkscape:collect="always" id="linearGradient928"><stop style="stop-color:#e95f11;stop-opacity:1;" offset="0" id="stop924"></stop><stop style="stop-color:#e95f11;stop-opacity:0;" offset="1" id="stop926"></stop></linearGradient><linearGradient inkscape:collect="always" xlink:href="#linearGradient938" id="linearGradient7296" gradientUnits="userSpaceOnUse" gradientTransform="translate(-559.5937,212.90569)" x1="9.0871639" y1="137.17282" x2="-3.2072363" y2="116.32581"></linearGradient><linearGradient inkscape:collect="always" id="linearGradient938"><stop style="stop-color:#d3411f;stop-opacity:1;" offset="0" id="stop934"></stop><stop style="stop-color:#d3411f;stop-opacity:0;" offset="1" id="stop936"></stop></linearGradient><radialGradient inkscape:collect="always" xlink:href="#linearGradient1218" id="radialGradient7298" gradientUnits="userSpaceOnUse" gradientTransform="matrix(1,0,0,0.81249732,-290.56355,242.6944)" cx="-371.03885" cy="23.287258" fx="-371.03885" fy="23.287258" r="66.523849"></radialGradient><linearGradient inkscape:collect="always" id="linearGradient1218"><stop style="stop-color:#eda133;stop-opacity:1;" offset="0" id="stop1214"></stop><stop style="stop-color:#eda133;stop-opacity:0;" offset="1" id="stop1216"></stop></linearGradient><linearGradient inkscape:collect="always" xlink:href="#linearGradient1238" id="linearGradient7300" gradientUnits="userSpaceOnUse" gradientTransform="translate(-231.32143,300.86905)" x1="-499.79401" y1="62.337357" x2="-494.98318" y2="43.62849"></linearGradient><linearGradient inkscape:collect="always" id="linearGradient1238"><stop style="stop-color:#d30a1b;stop-opacity:1;" offset="0" id="stop1234"></stop><stop style="stop-color:#d30a1b;stop-opacity:0;" offset="1" id="stop1236"></stop></linearGradient><linearGradient inkscape:collect="always" xlink:href="#linearGradient1123" id="linearGradient7555" gradientUnits="userSpaceOnUse" x1="-1862.4366" y1="2605.312" x2="-1315.6808" y2="2622.1118"></linearGradient><linearGradient inkscape:collect="always" xlink:href="#linearGradient1123" id="linearGradient7557" gradientUnits="userSpaceOnUse" x1="-1862.4366" y1="2605.312" x2="-1315.6808" y2="2622.1118"></linearGradient><linearGradient inkscape:collect="always" xlink:href="#linearGradient1123" id="linearGradient7559" gradientUnits="userSpaceOnUse" x1="-1862.4366" y1="2605.312" x2="-1315.6808" y2="2622.1118"></linearGradient><linearGradient inkscape:collect="always" xlink:href="#linearGradient1123" id="linearGradient7561" gradientUnits="userSpaceOnUse" x1="-1862.4366" y1="2605.312" x2="-1315.6808" y2="2622.1118"></linearGradient></defs><metadata id="metadata7305"></metadata><g inkscape:label="Calque 1" inkscape:groupmode="layer" id="layer1" transform="translate(0,-273.71665)"><g id="g7280" transform="matrix(0.56204048,0,0,0.56204048,317.88464,-56.882084)" inkscape:export-xdpi="96" inkscape:export-ydpi="96"><g id="g7278" transform="matrix(0.19972433,0,0,0.19972433,-414.54924,546.75587)"><path style="fill:#f2671e;fill-opacity:1;stroke:none;stroke-width:0.26499999;stroke-linecap:butt;stroke-linejoin:miter;stroke-miterlimit:4;stroke-dasharray:none;stroke-opacity:1" d="m -675.20959,207.56478 -52.91666,108.1009 c 14.58942,-2.02755 28.4661,-3.86895 41.74474,-7.12774 a 26.532075,40.371535 41.541192 0 1 -1.44126,-1.28003 26.532075,40.371535 41.541192 0 1 8.69714,-48.26113 26.532075,40.371535 41.541192 0 1 46.33206,-10.77918 26.532075,40.371535 41.541192 0 1 2.71973,30.46325 c 12.07665,-11.49887 23.70046,-27.06051 34.99528,-48.43787 l -9.82731,-22.6782 z" id="path7214" inkscape:connector-curvature="0"></path><ellipse transform="matrix(0.7601969,-0.64969275,0.62416405,0.78129331,0,0)" style="fill:#d1001c;fill-opacity:1;stroke:none;stroke-width:0.3849386" ry="21.294456" rx="32.357071" cy="-218.84175" cx="-687.70117" id="ellipse7216"></ellipse><ellipse id="ellipse7218" cx="-687.93719" cy="-218.55424" rx="32.357071" ry="21.294456" style="fill:url(#linearGradient7292);fill-opacity:1;stroke:none;stroke-width:0.3849386" transform="matrix(0.7601969,-0.64969275,0.62416405,0.78129331,0,0)"></ellipse><ellipse transform="matrix(0.816604,-0.57719833,0.69475423,0.71924722,0,0)" style="fill:url(#radialGradient7294);fill-opacity:1;stroke:none;stroke-width:0.34688145" ry="18.850925" rx="29.681259" cy="-163.7888" cx="-673.12415" id="ellipse7220"></ellipse><path inkscape:connector-curvature="0" id="path7222" d="m -733.46275,325.83128 -15.49702,30.99405 h 39.6875 l 5.29167,-12.47321 z" style="fill:#f2671e;fill-opacity:1;stroke:none;stroke-width:0.26458332px;stroke-linecap:butt;stroke-linejoin:miter;stroke-opacity:1"></path><path inkscape:connector-curvature="0" id="path7224" d="m -600.79311,357.20331 -10.58333,-19.27679 21.54464,3.77976 -14.74107,-14.74107 23.05655,-0.75595 -17.76488,-8.31548 22.30059,-1.13393 -13.98512,-7.9375 h 20.03274 l -14.36309,-8.69345 17.76488,-2.26786 -12.85119,-8.31547 h 13.98512 l 32.50595,66.90178 z" style="fill:#f2671e;fill-opacity:1;stroke:none;stroke-width:0.26458332px;stroke-linecap:butt;stroke-linejoin:miter;stroke-opacity:1"></path><path sodipodi:nodetypes="cscsc" inkscape:connector-curvature="0" id="path7226" d="m -729.68298,322.42949 c 2.27388,-1.47911 8.87382,-4.20442 17.90657,-4.58916 45.35552,-1.93183 103.94958,-33.18883 127.99223,-102.3781 0.51704,6.61928 -16.67044,65.54871 -67.97086,91.87508 -33.78023,17.33536 -77.92794,15.09218 -77.92794,15.09218 z" style="fill:#82a13d;fill-opacity:1;stroke:none;stroke-width:0.26458332px;stroke-linecap:butt;stroke-linejoin:miter;stroke-opacity:1"></path><path sodipodi:nodetypes="ccsc" inkscape:connector-curvature="0" id="path7228" d="m -724.23173,325.75698 76.97362,46.77217 -14.96709,-13.36347 c -7.99153,-7.13529 -45.81011,-28.68115 -62.00653,-33.4087 z" style="fill:#82a13d;fill-opacity:1;stroke:none;stroke-width:0.26458332px;stroke-linecap:butt;stroke-linejoin:miter;stroke-opacity:1"></path><path style="fill:#82a13d;fill-opacity:1;stroke:none;stroke-width:0.26458332px;stroke-linecap:butt;stroke-linejoin:miter;stroke-opacity:1" d="m -714.1618,325.05923 80.88936,39.61673 -16.11468,-11.95463 c -8.60428,-6.38305 -48.21698,-24.41919 -64.77468,-27.6621 z" id="path7230" inkscape:connector-curvature="0" sodipodi:nodetypes="ccsc"></path><path sodipodi:nodetypes="ccac" inkscape:connector-curvature="0" id="path7232" d="m -696.97023,324.6879 73.76638,29.13238 c 0,0 -9.89841,-7.70761 -15.50163,-10.42351 -18.35569,-8.89708 -38.2644,-17.32514 -58.26475,-18.70887 z" style="fill:#82a13d;fill-opacity:1;stroke:none;stroke-width:0.26458332px;stroke-linecap:butt;stroke-linejoin:miter;stroke-opacity:1"></path><path sodipodi:nodetypes="cccac" inkscape:connector-curvature="0" id="path7234" d="m -683.33949,322.54975 10.69078,3.74177 60.40291,16.57071 c 0,0 -8.21757,-5.68222 -12.82893,-7.48354 -18.5237,-7.23585 -45.75756,-12.65334 -58.26476,-12.82894 z" style="fill:#82a13d;fill-opacity:1;stroke:none;stroke-width:0.26458332px;stroke-linecap:butt;stroke-linejoin:miter;stroke-opacity:1"></path><path sodipodi:nodetypes="cacac" inkscape:connector-curvature="0" id="path7236" d="m -668.37618,319.30363 c 0,0 7.42941,2.42243 11.22659,3.39038 18.30894,4.66719 55.59836,11.62417 55.59836,11.62417 0,0 -34.47004,-12.48276 -52.65806,-15.01455 -4.66753,-0.64973 -14.16689,0 -14.16689,0 z" style="fill:#82a13d;fill-opacity:1;stroke:none;stroke-width:0.25186774px;stroke-linecap:butt;stroke-linejoin:miter;stroke-opacity:1"></path><path style="fill:#82a13d;fill-opacity:1;stroke:none;stroke-width:0.23805818px;stroke-linecap:butt;stroke-linejoin:miter;stroke-opacity:1" d="m -655.79059,314.64427 c 0,0 6.72309,1.72975 10.13668,2.34131 16.45941,2.9488 49.76888,6.38379 49.76888,6.38379 0,0 -31.2969,-9.27978 -47.47167,-10.08618 -4.15088,-0.20698 -12.43389,1.36108 -12.43389,1.36108 z" id="path7238" inkscape:connector-curvature="0" sodipodi:nodetypes="cacac"></path><path sodipodi:nodetypes="cacac" inkscape:connector-curvature="0" id="path7240" d="m -647.98794,310.10326 c 0,0 6.85987,1.065 10.31687,1.34031 16.66869,1.3275 50.15439,1.49352 50.15439,1.49352 0,0 -32.05347,-6.1794 -48.22969,-5.40253 -4.15125,0.19933 -12.24157,2.5687 -12.24157,2.5687 z" style="fill:#82a13d;fill-opacity:1;stroke:none;stroke-width:0.23805818px;stroke-linecap:butt;stroke-linejoin:miter;stroke-opacity:1"></path><path style="fill:#82a13d;fill-opacity:1;stroke:none;stroke-width:0.21493198px;stroke-linecap:butt;stroke-linejoin:miter;stroke-opacity:1" d="m -635.16225,302.36204 c 0,0 6.19346,0.96154 9.31463,1.2101 15.04941,1.19854 45.28214,1.34843 45.28214,1.34843 0,0 -28.93964,-5.5791 -43.54441,-4.8777 -3.74798,0.17997 -11.05236,2.31917 -11.05236,2.31917 z" id="path7242" inkscape:connector-curvature="0" sodipodi:nodetypes="cacac"></path><path sodipodi:nodetypes="cacac" inkscape:connector-curvature="0" id="path7244" d="m -629.25435,296.2062 c 0,0 6.2329,0.65914 9.36247,0.75559 15.08989,0.46509 45.29413,-0.85578 45.29413,-0.85578 0,0 -29.17676,-4.16481 -43.73013,-2.75384 -3.73479,0.36206 -10.92647,2.85403 -10.92647,2.85403 z" style="fill:#82a13d;fill-opacity:1;stroke:none;stroke-width:0.21493198px;stroke-linecap:butt;stroke-linejoin:miter;stroke-opacity:1"></path><path style="fill:#82a13d;fill-opacity:1;stroke:none;stroke-width:0.21493198px;stroke-linecap:butt;stroke-linejoin:miter;stroke-opacity:1" d="m -618.7167,287.6494 c 0,0 6.26083,0.29263 9.39067,0.20546 15.0912,-0.42029 45.16607,-3.50947 45.16607,-3.50947 0,0 -29.37073,-2.4473 -43.81636,-0.18562 -3.70714,0.58037 -10.74038,3.48963 -10.74038,3.48963 z" id="path7246" inkscape:connector-curvature="0" sodipodi:nodetypes="cacac"></path><path sodipodi:nodetypes="cacac" inkscape:connector-curvature="0" id="path7248" d="m -610.71277,279.1774 c 0,0 5.73991,0.26828 8.60933,0.18836 13.83559,-0.38532 41.40815,-3.21748 41.40815,-3.21748 0,0 -26.92701,-2.24367 -40.17073,-0.17017 -3.3987,0.53208 -9.84675,3.19929 -9.84675,3.19929 z" style="fill:#82a13d;fill-opacity:1;stroke:none;stroke-width:0.19704913px;stroke-linecap:butt;stroke-linejoin:miter;stroke-opacity:1"></path><path sodipodi:nodetypes="ccsc" inkscape:connector-curvature="0" id="path7250" d="m -603.15864,272.2977 42.22859,-8.28535 c 0,0 -17.09574,-1.68128 -25.3906,0 -9.88628,2.00385 -16.83799,8.28535 -16.83799,8.28535 z" style="fill:#82a13d;fill-opacity:1;stroke:none;stroke-width:0.26458332px;stroke-linecap:butt;stroke-linejoin:miter;stroke-opacity:1"></path><path sodipodi:nodetypes="ccacc" inkscape:connector-curvature="0" id="path7252" d="m -594.60601,263.75045 c 10.29246,-6.25039 21.8921,-8.36137 33.67596,-9.88897 0,0 -14.87167,-1.5598 -22.05645,0 -4.82915,1.0484 -13.4904,6.1472 -13.4904,6.1472 -0.78555,2.06928 -0.36453,3.43473 1.87089,3.74177 z" style="fill:#82a13d;fill-opacity:1;stroke:none;stroke-width:0.26458332px;stroke-linecap:butt;stroke-linejoin:miter;stroke-opacity:1"></path><path style="fill:#82a13d;fill-opacity:1;stroke:none;stroke-width:0.26458332px;stroke-linecap:butt;stroke-linejoin:miter;stroke-opacity:1" d="m -589.21985,252.88364 c 10.29246,-6.2504 21.8921,-8.36137 33.67596,-9.88897 0,0 -14.87166,-1.55981 -22.05645,0 -4.82915,1.04839 -13.49039,6.14719 -13.49039,6.14719 -0.78556,2.06929 -0.36454,3.43473 1.87088,3.74178 z" id="path7254" inkscape:connector-curvature="0" sodipodi:nodetypes="ccacc"></path><path sodipodi:nodetypes="ccacc" inkscape:connector-curvature="0" id="path7256" d="m -585.74903,243.38984 c 8.73614,-6.42998 18.97565,-9.25014 29.42703,-11.56156 0,0 -13.46845,-0.21231 -19.79064,1.76084 -4.24937,1.32622 -11.61381,6.59269 -11.61381,6.59269 -0.53966,1.91942 -0.0529,3.11098 1.97742,3.20803 z" style="fill:#82a13d;fill-opacity:1;stroke:none;stroke-width:0.23834108px;stroke-linecap:butt;stroke-linejoin:miter;stroke-opacity:1"></path><path sodipodi:nodetypes="ccacc" inkscape:connector-curvature="0" id="path7258" d="m -583.24705,234.48444 c 6.10019,-6.55302 14.5753,-8.35622 22.317,-11.62623 0,0 -10.50066,0.0485 -15.23436,2.00453 -3.52421,1.45621 -9.08717,6.949 -9.08717,6.949 -0.28786,2.80298 0.91246,2.62958 2.00453,2.6727 z" style="fill:#82a13d;fill-opacity:1;stroke:none;stroke-width:0.26458332px;stroke-linecap:butt;stroke-linejoin:miter;stroke-opacity:1"></path><path style="fill:#82a13d;fill-opacity:1;stroke:none;stroke-width:0.20921049px;stroke-linecap:butt;stroke-linejoin:miter;stroke-opacity:1" d="m -580.08493,223.7219 c 4.39982,-5.54589 10.9679,-7.49581 16.86639,-10.55622 0,0 -8.27416,0.69314 -11.88353,2.53016 -2.68715,1.36766 -6.72961,6.04431 -6.72961,6.04431 -0.0521,2.2274 0.88324,2.01586 1.74675,1.98175 z" id="path7260" inkscape:connector-curvature="0" sodipodi:nodetypes="ccacc"></path><path style="fill:url(#linearGradient7296);fill-opacity:1;stroke:none;stroke-width:0.26458332px;stroke-linecap:butt;stroke-linejoin:miter;stroke-opacity:1" d="m -600.79311,357.20331 -10.58333,-19.27679 21.54464,3.77976 -14.74107,-14.74107 23.05655,-0.75595 -17.76488,-8.31548 22.30059,-1.13393 -13.98512,-7.9375 h 20.03274 l -14.36309,-8.69345 17.76488,-2.26786 -12.85119,-8.31547 h 13.98512 l 32.50595,66.90178 z" id="path7262" inkscape:connector-curvature="0"></path><path id="path7264" d="m -675.20958,207.56478 -52.91667,108.1009 c 14.58943,-2.02756 28.46611,-3.86895 41.74473,-7.12774 a 26.532075,40.371535 41.541192 0 1 -1.44125,-1.28003 26.532075,40.371535 41.541192 0 1 8.69714,-48.26113 26.532075,40.371535 41.541192 0 1 46.33206,-10.77919 26.532075,40.371535 41.541192 0 1 2.71974,30.46325 c 12.07664,-11.49887 23.70046,-27.0605 34.99527,-48.43786 l -9.82731,-22.6782 z" style="fill:url(#radialGradient7298);fill-opacity:1;stroke:none;stroke-width:0.26499999;stroke-linecap:butt;stroke-linejoin:miter;stroke-miterlimit:4;stroke-dasharray:none;stroke-opacity:1" inkscape:connector-curvature="0"></path><g id="g7274" style="fill:#000000;fill-opacity:1" transform="translate(-232.01839,299.64599)"><path d="m -495.36668,115.33686 h -4.61366 l -3.62358,-9.39596 h -12.89307 l -3.41292,9.39596 h -4.31876 l 11.86082,-30.88445 h 4.403 z m -9.48015,-12.64029 q -3.79217,-10.02798 -4.2767,-11.37627 -0.48452,-1.36937 -1.07443,-3.64462 h -0.1057 q -0.58991,3.11794 -1.5801,5.7724 l -3.45499,9.24849 z" style="font-style:normal;font-variant:normal;font-weight:normal;font-stretch:normal;font-size:40px;line-height:0.75;font-family:'Arial Unicode MS';-inkscape-font-specification:'Arial Unicode MS';letter-spacing:24.52938271px;word-spacing:0px;fill:#000000;fill-opacity:1;stroke:none;stroke-width:1.07863843" id="path7266" inkscape:connector-curvature="0"></path><path d="m -441.94076,115.33686 h -4.1081 V 84.45241 h 4.1081 z" style="font-style:normal;font-variant:normal;font-weight:normal;font-stretch:normal;font-size:40px;line-height:0.75;font-family:'Arial Unicode MS';-inkscape-font-specification:'Arial Unicode MS';letter-spacing:24.52938271px;word-spacing:0px;fill:#000000;fill-opacity:1;stroke:none;stroke-width:1.07863843" id="path7268" inkscape:connector-curvature="0"></path><path d="m -388.60164,84.45241 h 11.65016 q 2.75981,0 4.74008,0.27387 2.00141,0.27387 3.70782,1.43257 1.7064,1.13763 2.57018,3.11793 0.88481,1.95925 0.88481,4.1081 0,4.27663 -2.75981,6.86789 -2.73866,2.5702 -8.806,2.5702 h -7.90027 v 12.51389 h -4.08697 z m 4.08697,14.70487 h 7.94233 q 7.28923,0 7.28923,-5.646 0,-1.85391 -0.94802,-3.26541 -0.94801,-1.43256 -2.33838,-1.76963 -1.36944,-0.35815 -4.08707,-0.35815 h -7.85809 z" style="font-style:normal;font-variant:normal;font-weight:normal;font-stretch:normal;font-size:40px;line-height:0.75;font-family:'Arial Unicode MS';-inkscape-font-specification:'Arial Unicode MS';letter-spacing:24.52938271px;word-spacing:0px;fill:#000000;fill-opacity:1;stroke:none;stroke-width:1.07863843" id="path7270" inkscape:connector-curvature="0"></path><path d="m -294.58562,115.33686 h -4.1081 v -14.53634 h -16.05316 v 14.53634 h -4.08707 V 84.45241 h 4.08707 v 12.68243 h 16.05316 V 84.45241 h 4.1081 z" style="font-style:normal;font-variant:normal;font-weight:normal;font-stretch:normal;font-size:40px;line-height:0.75;font-family:'Arial Unicode MS';-inkscape-font-specification:'Arial Unicode MS';letter-spacing:24.52938271px;word-spacing:0px;fill:#000000;fill-opacity:1;stroke:none;stroke-width:1.07863843" id="path7272" inkscape:connector-curvature="0"></path></g><path style="fill:url(#linearGradient7300);fill-opacity:1;stroke:none;stroke-width:0.26458332px;stroke-linecap:butt;stroke-linejoin:miter;stroke-opacity:1" d="m -733.46275,325.83128 -15.49702,30.99405 h 39.6875 l 5.29167,-12.47321 z" id="path7276" inkscape:connector-curvature="0"></path></g></g></g></svg> 